<svg xmlns="http://www.w3.org/2000/svg" width="50.819" height="77.741" viewBox="0 0 38.819 57.741">
  <g id="Grupo_4" data-name="Grupo 4">
    <path id="Trazado_34" data-name="Trazado 34" d="M-866.294-741.265h0a19.409,19.409,0,0,0-19.41,19.409v18.923a19.409,19.409,0,0,0,19.41,19.409h0a19.409,19.409,0,0,0,19.409-19.409v-18.923A19.409,19.409,0,0,0-866.294-741.265Zm9.587,46.584h-.974v-6.284h.974Zm0-8.916-3.217,4.859v4.057h-.974v-4.351l3.217-4.858v-2.46h.974Zm1.379-15.555v12.415h-3.48v1.97l-.022.029-3.913,5.349.13,4.694-.974.027-.139-5.027,3.944-5.39v-2.626h3.48v-10.953h-10.427l-3.109,3.275v5.92l8.2,4.905-.5.836-8.671-5.189v-6.861l2.74-2.886H-871.3l-1.847,1.858v8.736l9.825,5.836-.583.787-10.216-6.068v-9.693l.032-.032,1.416-1.424h-3.617v12.146l11.271,6.576-.583.788-.086-.051-11.576-6.754v-13.68h.012a10.979,10.979,0,0,1,10.954-10.48,10.979,10.979,0,0,1,10.954,10.48h.012Z" transform="translate(885.704 741.265)" fill="#efefef"/>
  </g>
  <g id="Grupo_5" data-name="Grupo 5" transform="translate(9.43 12.121)">
    <path id="Trazado_35" data-name="Trazado 35" d="M-855.808-715.665a10,10,0,0,0-9.98,9.505h3.964a6.79,6.79,0,0,1,6.752-6.166,6.79,6.79,0,0,1,6.752,6.166h2.492A10,10,0,0,0-855.808-715.665Z" transform="translate(865.788 715.665)" fill="#efefef"/>
  </g>
  <g id="Grupo_6" data-name="Grupo 6" transform="translate(19.068 18.897)">
    <path id="Trazado_36" data-name="Trazado 36" d="M-842.183-701.354a3.3,3.3,0,0,0-3.248,2.729h6.5A3.3,3.3,0,0,0-842.183-701.354Z" transform="translate(845.431 701.354)" fill="#efefef"/>
  </g>
  <g id="Grupo_7" data-name="Grupo 7" transform="translate(14.37 16.435)">
    <path id="Trazado_37" data-name="Trazado 37" d="M-847.408-705.066a4.252,4.252,0,0,1,2.386.73,5.8,5.8,0,0,0-4.557-2.218,5.816,5.816,0,0,0-5.775,5.191h3.714A4.278,4.278,0,0,1-847.408-705.066Z" transform="translate(855.354 706.554)" fill="#efefef"/>
  </g>
  <g id="Grupo_17" data-name="Grupo 17">
    <path id="Trazado_34-2" data-name="Trazado 34" d="M-866.294-741.265h0a19.409,19.409,0,0,0-19.41,19.409v18.923a19.409,19.409,0,0,0,19.41,19.409h0a19.409,19.409,0,0,0,19.409-19.409v-18.923A19.409,19.409,0,0,0-866.294-741.265Zm9.587,46.584h-.974v-6.284h.974Zm0-8.916-3.217,4.859v4.057h-.974v-4.351l3.217-4.858v-2.46h.974Zm1.379-15.555v12.415h-3.48v1.97l-.022.029-3.913,5.349.13,4.694-.974.027-.139-5.027,3.944-5.39v-2.626h3.48v-10.953h-10.427l-3.109,3.275v5.92l8.2,4.905-.5.836-8.671-5.189v-6.861l2.74-2.886H-871.3l-1.847,1.858v8.736l9.825,5.836-.583.787-10.216-6.068v-9.693l.032-.032,1.416-1.424h-3.617v12.146l11.271,6.576-.583.788-.086-.051-11.576-6.754v-13.68h.012a10.979,10.979,0,0,1,10.954-10.48,10.979,10.979,0,0,1,10.954,10.48h.012Z" transform="translate(885.704 741.265)" fill="#efefef"/>
  </g>
</svg>
