<svg xmlns="http://www.w3.org/2000/svg" width="158.139" height="57.741" viewBox="0 0 158.139 57.741">
  <g id="Grupo_11" data-name="Grupo 11" transform="translate(139.892 40.244)">
    <path id="Trazado_19" data-name="Trazado 19" d="M-595.134-637.972l-.464.025.045.842-.326.017-.044-.842-.639.035-.023-.421,1.755-.1.073,1.375-.325.018Z" transform="translate(596.586 646.958)" fill="#798777"/>
    <path id="Trazado_20" data-name="Trazado 20" d="M-594.361-634.614l.106.41-1.706.436-.106-.409Z" transform="translate(596.312 644.958)" fill="#798777"/>
    <path id="Trazado_21" data-name="Trazado 21" d="M-594.7-630.727l.276-.536-.01-.018-.168-.327-.436.224-.192-.375,1.566-.8.36.7c.222.434.144.817-.207,1a.573.573,0,0,1-.666-.081l-.317.623Zm1.09-1-.157-.306-.546.28.157.306c.117.229.28.293.449.205S-593.5-631.5-593.613-631.731Z" transform="translate(595.874 643.879)" fill="#798777"/>
    <path id="Trazado_22" data-name="Trazado 22" d="M-591.292-626.413l.731-.761-.991.254-.137-.133.2-.98-.717.743-.286-.274,1.221-1.266.252.242-.266,1.26,1.243-.32.25.24-1.217,1.27Z" transform="translate(594.429 641.913)" fill="#798777"/>
    <path id="Trazado_23" data-name="Trazado 23" d="M-586.351-623.253l-.771-.35-.3.276-.393-.179,1.472-1.264.38.173.01,1.938-.4-.184Zm.008-.336.018-.732-.544.493Z" transform="translate(591.97 639.775)" fill="#798777"/>
    <path id="Trazado_24" data-name="Trazado 24" d="M-579.8-623.228h.828a.9.9,0,0,1,1.006.88.9.9,0,0,1-1,.882h-.828Zm.808,1.427a.535.535,0,0,0,.6-.546.537.537,0,0,0-.6-.546h-.385v1.093Z" transform="translate(587.745 638.963)" fill="#798777"/>
    <path id="Trazado_25" data-name="Trazado 25" d="M-573.266-622.865l.089.314-1.359.382-.481-1.694,1.328-.373.089.314-.923.26.1.367.815-.229.087.3-.815.229.111.391Z" transform="translate(585.23 639.494)" fill="#798777"/>
    <path id="Trazado_26" data-name="Trazado 26" d="M-567.2-625.87l-.673.514.1.4-.344.263-.423-1.888.331-.253,1.716.9-.352.269Zm-.294-.165-.639-.358.179.71Z" transform="translate(581.819 640.864)" fill="#798777"/>
    <path id="Trazado_27" data-name="Trazado 27" d="M-564.029-630.15c.242.184.232.489-.059.871l-.571.75-1.4-1.063.538-.709c.276-.363.565-.438.783-.273a.422.422,0,0,1,.162.428A.438.438,0,0,1-564.029-630.15Zm-1.535.409.331.25.253-.334c.125-.164.136-.3.026-.379s-.233-.036-.357.128Zm1.244-.1c-.118-.09-.245-.038-.378.136l-.3.391.348.264.3-.392C-564.22-629.615-564.2-629.747-564.321-629.839Z" transform="translate(580.515 642.876)" fill="#798777"/>
    <path id="Trazado_28" data-name="Trazado 28" d="M-562.463-633.288a.928.928,0,0,1-.5-1.254.929.929,0,0,1,1.2-.612.928.928,0,0,1,.5,1.254A.929.929,0,0,1-562.463-633.288Zm.554-1.466a.546.546,0,0,0-.728.335.545.545,0,0,0,.324.732.546.546,0,0,0,.728-.335A.546.546,0,0,0-561.909-634.755Z" transform="translate(578.922 645.274)" fill="#798777"/>
    <path id="Trazado_29" data-name="Trazado 29" d="M-560.989-639.634l.025-.384.712.047a1.279,1.279,0,0,1,.175.75.92.92,0,0,1-.972.93.927.927,0,0,1-.843-1.059.983.983,0,0,1,.354-.74l.223.286a.627.627,0,0,0-.229.456.554.554,0,0,0,.523.632.553.553,0,0,0,.6-.552.7.7,0,0,0-.054-.332Z" transform="translate(578.32 647.842)" fill="#798777"/>
    <path id="Trazado_30" data-name="Trazado 30" d="M-560.99-644.973l.192.826.4.072.1.422-1.9-.4-.094-.406,1.528-1.192.1.432Zm-.271.2-.59.434.721.13Z" transform="translate(578.527 650.767)" fill="#798777"/>
    <path id="Trazado_31" data-name="Trazado 31" d="M-563.638-647.777l-.427-.71a.9.9,0,0,1,.235-1.315.9.9,0,0,1,1.271.41l.427.71Zm.8-1.426a.536.536,0,0,0-.776-.233.536.536,0,0,0-.158.794l.2.331.934-.561Z" transform="translate(579.559 653.024)" fill="#798777"/>
    <path id="Trazado_32" data-name="Trazado 32" d="M-566.107-652.392a.929.929,0,0,1-1.349.052.931.931,0,0,1-.177-1.341.93.93,0,0,1,1.349-.051A.93.93,0,0,1-566.107-652.392Zm-1.2-1.013a.547.547,0,0,0,.073.8.547.547,0,0,0,.8-.062.548.548,0,0,0-.073-.8A.546.546,0,0,0-567.306-653.4Z" transform="translate(581.453 655.163)" fill="#798777"/>
    <path id="Trazado_33" data-name="Trazado 33" d="M-569.927-655.88l-.253.225a1.107,1.107,0,0,0-.482-.407c-.229-.1-.355-.065-.4.034-.129.3.935.514.677,1.113-.117.275-.447.4-.923.2a1.259,1.259,0,0,1-.521-.393l.242-.232a1.061,1.061,0,0,0,.41.326c.23.1.354.054.4-.047.128-.3-.936-.511-.681-1.1.116-.27.448-.4.927-.2A1.349,1.349,0,0,1-569.927-655.88Z" transform="translate(583.549 656.462)" fill="#798777"/>
  </g>
  <g id="Grupo_12" data-name="Grupo 12" transform="translate(46.919 11.855)">
    <path id="Trazado_1" data-name="Trazado 1" d="M-777.53-708.122a5.569,5.569,0,0,0,.036-.73,2.029,2.029,0,0,0-.187-.877,1.529,1.529,0,0,0-.508-.619,3.014,3.014,0,0,0-1.687-.383,4.6,4.6,0,0,0-1.985.405,3.968,3.968,0,0,0-1.438,1.135,6.258,6.258,0,0,0-1.166,4,5.785,5.785,0,0,0,1.184,3.82,4.081,4.081,0,0,0,3.321,1.487,5.08,5.08,0,0,0,3.205-.9,4.928,4.928,0,0,0,.632-.578.751.751,0,0,1,.437.472.967.967,0,0,1,.053.352,1.279,1.279,0,0,1-.316.641,3.507,3.507,0,0,1-.921.815,6.168,6.168,0,0,1-3.454.944,6.12,6.12,0,0,1-4.594-1.754,6.276,6.276,0,0,1-1.692-4.6,8.574,8.574,0,0,1,.561-3.178,7.178,7.178,0,0,1,1.532-2.408,6.719,6.719,0,0,1,2.266-1.527,6.588,6.588,0,0,1,2.519-.534,7.607,7.607,0,0,1,1.964.2,3.792,3.792,0,0,1,1.228.561,2.3,2.3,0,0,1,.98,1.941,1.375,1.375,0,0,1-.686,1.309.98.98,0,0,1-.5.134A1.772,1.772,0,0,1-777.53-708.122Z" transform="translate(786.611 714.079)" fill="#155263"/>
    <path id="Trazado_2" data-name="Trazado 2" d="M-753.1-696.162a4.282,4.282,0,0,1-3.143,1.3,3.156,3.156,0,0,1-2.279-.819,2.839,2.839,0,0,1-.864-2.146,2.65,2.65,0,0,1,1.46-2.457,7.6,7.6,0,0,1,3.713-.748h1.113q.009-.339.009-.659v-.668a3.031,3.031,0,0,0-.347-1.683,1.526,1.526,0,0,0-1.336-.552q-2.163,0-2.226,1.55a2.756,2.756,0,0,0,.009.4.977.977,0,0,1-.6.142,1.432,1.432,0,0,1-.615-.1,1.071,1.071,0,0,1-.334-.267,1.3,1.3,0,0,1-.3-.886,1.487,1.487,0,0,1,.316-.944,2.341,2.341,0,0,1,.859-.664,5.576,5.576,0,0,1,2.5-.525,6.335,6.335,0,0,1,2.168.281,3.011,3.011,0,0,1,1.153.743,3.113,3.113,0,0,1,.757,2.2l-.089,4.274a5.782,5.782,0,0,0,.111,1.478.835.835,0,0,0,.267.419.662.662,0,0,0,.383.107.829.829,0,0,0,.369-.071l.249-.116c.083-.03.156,0,.218.1a.5.5,0,0,1,.093.258.664.664,0,0,1-.093.289,1.282,1.282,0,0,1-.347.379,2.978,2.978,0,0,1-.574.351q-1.772.837-2.413-.392A1.744,1.744,0,0,1-753.1-696.162Zm-.026-1.167q0-1.283.017-2.546a14.911,14.911,0,0,0-2.515.236,4.82,4.82,0,0,0-.957.316,1.452,1.452,0,0,0-.463.356,1.588,1.588,0,0,0-.276,1.019,1.347,1.347,0,0,0,.481,1.086,2.085,2.085,0,0,0,1.38.405A3.587,3.587,0,0,0-753.123-697.329Z" transform="translate(772.274 710.782)" fill="#155263"/>
    <path id="Trazado_3" data-name="Trazado 3" d="M-729.756-702.724a1.757,1.757,0,0,0-1.14-1.816,2.142,2.142,0,0,0-.788-.143,4.052,4.052,0,0,0-.783.071,2.221,2.221,0,0,0-.637.223,1.058,1.058,0,0,0-.623.971,1.348,1.348,0,0,0,.516,1.051,10.051,10.051,0,0,0,2.119,1.162,8.265,8.265,0,0,1,2.391,1.5,2.541,2.541,0,0,1,.841,1.875,2.526,2.526,0,0,1-.98,2.012,4.834,4.834,0,0,1-3.178.953,4.5,4.5,0,0,1-3.437-1.06,1.388,1.388,0,0,1-.329-.953q0-1.4.686-1.629a1.048,1.048,0,0,1,.321-.053q.418,0,.454.258a2.207,2.207,0,0,0,2.493,2.226,1.971,1.971,0,0,0,1.843-.774,1.144,1.144,0,0,0,.151-.606,1.039,1.039,0,0,0-.227-.65,2.411,2.411,0,0,0-.628-.547,7.04,7.04,0,0,0-.953-.494l-1.184-.534q-2.724-1.247-2.724-3.312a2.465,2.465,0,0,1,1.184-2.137,5.076,5.076,0,0,1,2.893-.757q2.4,0,2.992,1.042a1.172,1.172,0,0,1,.151.588,4.166,4.166,0,0,1-.036.574,3.962,3.962,0,0,1-.089.459,1.613,1.613,0,0,1-.2.552,1.114,1.114,0,0,1-.664.169Q-729.756-702.5-729.756-702.724Z" transform="translate(759.849 710.782)" fill="#155263"/>
    <path id="Trazado_4" data-name="Trazado 4" d="M-712.436-704.1l-.01,2.342a5.626,5.626,0,0,0,.152,1.767.625.625,0,0,0,.356.356,1.964,1.964,0,0,0,.525.058,3.234,3.234,0,0,0,.583-.049,3.476,3.476,0,0,0,.494-.13,4.7,4.7,0,0,0,.446-.178l.436-.187q.151-.054.339.312a.468.468,0,0,1,.054.227.771.771,0,0,1-.107.334,1.715,1.715,0,0,1-.414.468,3.5,3.5,0,0,1-.716.467,3.583,3.583,0,0,1-1.6.454,6.779,6.779,0,0,1-1.153-.08,1.714,1.714,0,0,1-.757-.321,2.2,2.2,0,0,1-.641-1.825v-7.007h-.882a.455.455,0,0,1-.4-.178.828.828,0,0,1-.214-.463c0-.208.05-.323.151-.348a2.647,2.647,0,0,0,2-2.1,8.361,8.361,0,0,0,.267-1.327,4.249,4.249,0,0,1,.645-.071.461.461,0,0,1,.379.222.839.839,0,0,1,.156.517c0,.2-.007.38-.013.552s-.012.359-.018.561l-.036,1.246h3.08a.87.87,0,0,1,.116.436v.276a.7.7,0,0,1-.4.61,1.713,1.713,0,0,1-.886.236q-.486,0-.695-.013t-.4-.031l-.392-.054-.436-.036v.1Z" transform="translate(749.404 713.781)" fill="#155263"/>
    <path id="Trazado_5" data-name="Trazado 5" d="M-696.944-700q-1.371,0-1.371-.624a.779.779,0,0,1,.143-.5,1.238,1.238,0,0,0,.392.072q.827,0,.81-1.051v-5.965a1.569,1.569,0,0,0-.174-.868.707.707,0,0,0-.618-.245,2.068,2.068,0,0,0-.6.081q-.161.018-.232-.25a.48.48,0,0,1,.071-.423,1.847,1.847,0,0,1,.414-.383,3.59,3.59,0,0,1,.619-.352,2.989,2.989,0,0,1,1.22-.347,1.438,1.438,0,0,1,.725.143.956.956,0,0,1,.361.383,3.014,3.014,0,0,1,.2,1.265v7.114q.026.7.507.855a2.406,2.406,0,0,0,.33.08,2.841,2.841,0,0,1,.352.085.9.9,0,0,1,.244.111.442.442,0,0,1,.151.374.775.775,0,0,1-.134.49,2.7,2.7,0,0,0-.57-.044Zm.543-12.509a1.6,1.6,0,0,1-.556-.094,1.26,1.26,0,0,1-.441-.272,1.326,1.326,0,0,1-.392-1.006,1.326,1.326,0,0,1,.464-1.024,1.5,1.5,0,0,1,1.068-.419,1.347,1.347,0,0,1,1,.374,1.373,1.373,0,0,1,.374,1.015,1.351,1.351,0,0,1-.445,1.024A1.524,1.524,0,0,1-696.4-712.511Z" transform="translate(740.277 715.752)" fill="#155263"/>
    <path id="Trazado_6" data-name="Trazado 6" d="M-683.367-700.477q-1.362,0-1.362-.624a.793.793,0,0,1,.134-.5,1.262,1.262,0,0,0,.4.071q.774,0,.8-.935V-713.61a1.567,1.567,0,0,0-.125-.793.756.756,0,0,0-.659-.285,1.949,1.949,0,0,0-.4.04.429.429,0,0,1-.267,0,.308.308,0,0,1-.12-.111q-.178-.295.445-.749a3.264,3.264,0,0,1,1.932-.721,1.063,1.063,0,0,1,1.14,1.095,6.51,6.51,0,0,1,.035.695v12.011q.026.695.507.855a2.885,2.885,0,0,0,.334.08,3.11,3.11,0,0,1,.352.085.9.9,0,0,1,.249.111.441.441,0,0,1,.151.374.757.757,0,0,1-.143.49,2.62,2.62,0,0,0-.57-.044Z" transform="translate(733.111 716.227)" fill="#155263"/>
    <path id="Trazado_7" data-name="Trazado 7" d="M-669.922-700.477q-1.362,0-1.362-.624a.793.793,0,0,1,.134-.5,1.265,1.265,0,0,0,.4.071q.773,0,.8-.935V-713.61a1.567,1.567,0,0,0-.125-.793.755.755,0,0,0-.659-.285,1.946,1.946,0,0,0-.4.04.431.431,0,0,1-.267,0,.308.308,0,0,1-.12-.111q-.178-.295.445-.749a3.264,3.264,0,0,1,1.932-.721,1.063,1.063,0,0,1,1.14,1.095,6.494,6.494,0,0,1,.036.695v12.011q.026.695.508.855a2.864,2.864,0,0,0,.334.08,3.116,3.116,0,0,1,.352.085.9.9,0,0,1,.249.111.442.442,0,0,1,.151.374.76.76,0,0,1-.143.49,2.623,2.623,0,0,0-.57-.044Z" transform="translate(726.032 716.227)" fill="#155263"/>
    <path id="Trazado_8" data-name="Trazado 8" d="M-658.121-699.946a8.131,8.131,0,0,1,.214-1.95,6.008,6.008,0,0,1,.588-1.523,4.608,4.608,0,0,1,.882-1.126,4.814,4.814,0,0,1,1.086-.761,5.374,5.374,0,0,1,2.484-.579,3.926,3.926,0,0,1,2.947,1.265,5.05,5.05,0,0,1,1.344,3.668,6.376,6.376,0,0,1-1.629,4.657,4.6,4.6,0,0,1-3.393,1.433,4.148,4.148,0,0,1-3.312-1.451A5.349,5.349,0,0,1-658.121-699.946Zm5.048,3.633a2.056,2.056,0,0,0,1.069-.28,2.515,2.515,0,0,0,.8-.77,4.763,4.763,0,0,0,.659-2.636,6.136,6.136,0,0,0-.695-3.027,2.454,2.454,0,0,0-2.253-1.433,2.288,2.288,0,0,0-1.9.908,4.251,4.251,0,0,0-.757,2.688,5.532,5.532,0,0,0,.953,3.42A2.569,2.569,0,0,0-653.073-696.314Z" transform="translate(718.959 710.782)" fill="#155263"/>
  </g>
  <g id="Grupo_13" data-name="Grupo 13" transform="translate(46.714 30.71)">
    <path id="Trazado_9" data-name="Trazado 9" d="M-780.455-658.347a3.37,3.37,0,0,0-.882-.071h-4.576a1.576,1.576,0,0,1-.739-.147.554.554,0,0,1-.276-.538.712.712,0,0,1,.133-.454,2.542,2.542,0,0,0,.65.089,1.441,1.441,0,0,0,.49-.067.716.716,0,0,0,.312-.236,2.014,2.014,0,0,0,.267-1.184V-669.9q0-.827-.979-1.033a1.959,1.959,0,0,1-.8-.285.458.458,0,0,1-.187-.347.792.792,0,0,1,.143-.552,1.1,1.1,0,0,0,.294.045h2.208l3.169-.089q4.168,0,5.271,2.271a3.7,3.7,0,0,1,.4,1.638,7.245,7.245,0,0,1-.115,1.4,4.338,4.338,0,0,1-.4,1.126,4.42,4.42,0,0,1-.743,1.033,4.434,4.434,0,0,1-1.158.85,8.3,8.3,0,0,1-3.847.784h-.338q-.249,0-.249-.321,0-.7.383-.793,3.347.072,4.051-1.994a4.419,4.419,0,0,0,.214-1.389,5.426,5.426,0,0,0-.16-1.358,2.674,2.674,0,0,0-.579-1.1,3.9,3.9,0,0,0-3.063-1.051,1.39,1.39,0,0,0-1.149.374,2.286,2.286,0,0,0-.267,1.335v8.894q.044.7,1.1.846a5.119,5.119,0,0,1,1.184.25.77.77,0,0,1,.3.227.5.5,0,0,1,.071.271A.813.813,0,0,1-780.455-658.347Z" transform="translate(787.044 674.169)" fill="#155263"/>
    <path id="Trazado_10" data-name="Trazado 10" d="M-758.359-660.656q-1.362,0-1.362-.623a.8.8,0,0,1,.134-.5,1.274,1.274,0,0,0,.4.071q.774,0,.8-.935v-11.147a1.568,1.568,0,0,0-.125-.793.755.755,0,0,0-.659-.285,1.98,1.98,0,0,0-.4.04.43.43,0,0,1-.267,0,.3.3,0,0,1-.12-.111q-.178-.294.445-.748a3.263,3.263,0,0,1,1.932-.721,1.064,1.064,0,0,1,1.14,1.1,6.633,6.633,0,0,1,.035.695v12.011q.026.694.507.855a2.778,2.778,0,0,0,.334.08,3.182,3.182,0,0,1,.352.085.906.906,0,0,1,.25.111.442.442,0,0,1,.151.374.762.762,0,0,1-.143.49,2.582,2.582,0,0,0-.57-.044Z" transform="translate(772.8 676.406)" fill="#155263"/>
    <path id="Trazado_11" data-name="Trazado 11" d="M-740.084-656.341a4.282,4.282,0,0,1-3.143,1.3,3.154,3.154,0,0,1-2.279-.819,2.837,2.837,0,0,1-.864-2.145,2.65,2.65,0,0,1,1.46-2.458,7.594,7.594,0,0,1,3.713-.748h1.113q.009-.338.009-.659v-.668a3.024,3.024,0,0,0-.348-1.683,1.524,1.524,0,0,0-1.336-.552q-2.163,0-2.226,1.549a2.7,2.7,0,0,0,.009.4.977.977,0,0,1-.6.142,1.437,1.437,0,0,1-.615-.1,1.073,1.073,0,0,1-.334-.268,1.3,1.3,0,0,1-.3-.886,1.489,1.489,0,0,1,.316-.944,2.347,2.347,0,0,1,.859-.664,5.577,5.577,0,0,1,2.5-.525,6.339,6.339,0,0,1,2.168.281,3.013,3.013,0,0,1,1.153.743,3.114,3.114,0,0,1,.757,2.2l-.089,4.274a5.81,5.81,0,0,0,.111,1.478.83.83,0,0,0,.268.419.661.661,0,0,0,.383.107.824.824,0,0,0,.37-.072l.249-.115c.083-.03.156,0,.218.1a.5.5,0,0,1,.093.258.664.664,0,0,1-.093.289,1.274,1.274,0,0,1-.348.379,2.965,2.965,0,0,1-.574.351q-1.773.837-2.413-.392A1.739,1.739,0,0,1-740.084-656.341Zm-.026-1.167q0-1.282.018-2.546a14.909,14.909,0,0,0-2.516.236,4.866,4.866,0,0,0-.957.316,1.463,1.463,0,0,0-.463.356,1.593,1.593,0,0,0-.276,1.02,1.348,1.348,0,0,0,.481,1.086,2.087,2.087,0,0,0,1.38.4A3.588,3.588,0,0,0-740.11-657.508Z" transform="translate(765.628 670.961)" fill="#155263"/>
    <path id="Trazado_12" data-name="Trazado 12" d="M-716.743-662.9a1.758,1.758,0,0,0-1.14-1.816,2.155,2.155,0,0,0-.788-.143,4.026,4.026,0,0,0-.784.071,2.2,2.2,0,0,0-.636.222,1.058,1.058,0,0,0-.624.971,1.348,1.348,0,0,0,.517,1.051,10.059,10.059,0,0,0,2.119,1.162,8.272,8.272,0,0,1,2.391,1.5,2.539,2.539,0,0,1,.841,1.875,2.529,2.529,0,0,1-.98,2.012,4.838,4.838,0,0,1-3.178.953,4.5,4.5,0,0,1-3.437-1.06,1.386,1.386,0,0,1-.329-.953q0-1.4.686-1.629a1.065,1.065,0,0,1,.321-.053q.418,0,.454.258a2.207,2.207,0,0,0,2.492,2.226,1.972,1.972,0,0,0,1.843-.775,1.142,1.142,0,0,0,.151-.606,1.038,1.038,0,0,0-.227-.65,2.415,2.415,0,0,0-.628-.548,7,7,0,0,0-.952-.494l-1.184-.534q-2.724-1.246-2.724-3.312a2.465,2.465,0,0,1,1.184-2.136,5.073,5.073,0,0,1,2.893-.757q2.4,0,2.992,1.042a1.176,1.176,0,0,1,.151.588,4.249,4.249,0,0,1-.036.574,4.048,4.048,0,0,1-.089.459,1.609,1.609,0,0,1-.2.552,1.115,1.115,0,0,1-.664.169Q-716.743-662.681-716.743-662.9Z" transform="translate(753.203 670.961)" fill="#155263"/>
    <path id="Trazado_13" data-name="Trazado 13" d="M-695.54-662.814l.009-.321a3.387,3.387,0,0,0-.08-.574,1,1,0,0,0-.512-.663,2.107,2.107,0,0,0-1.095-.258,2.1,2.1,0,0,0-1.176.334,2.571,2.571,0,0,0-.832.895,5.788,5.788,0,0,0-.606,2.858,4.37,4.37,0,0,0,.82,2.751,2.652,2.652,0,0,0,2.208,1.086,4.558,4.558,0,0,0,2.386-.686,3.821,3.821,0,0,0,.427-.294c.059,0,.128.048.205.143a.739.739,0,0,1,.222.414.7.7,0,0,1-.125.357,2.293,2.293,0,0,1-.36.427,4.8,4.8,0,0,1-.565.459,4.645,4.645,0,0,1-.739.419,4.557,4.557,0,0,1-1.914.427,4.959,4.959,0,0,1-1.83-.334,4.006,4.006,0,0,1-1.465-.984,5.267,5.267,0,0,1-1.318-3.793,5.942,5.942,0,0,1,1.674-4.407,4.859,4.859,0,0,1,3.517-1.5,3.962,3.962,0,0,1,2.182.561,1.774,1.774,0,0,1,.917,1.549,1.183,1.183,0,0,1-.231.793,1.2,1.2,0,0,1-.931.472A1.891,1.891,0,0,1-695.54-662.814Z" transform="translate(742.203 670.961)" fill="#155263"/>
    <path id="Trazado_14" data-name="Trazado 14" d="M-680.667-660a7.457,7.457,0,0,1,.223-1.914,6.244,6.244,0,0,1,.6-1.5,5.229,5.229,0,0,1,.89-1.162,5.264,5.264,0,0,1,1.1-.828,4.584,4.584,0,0,1,2.279-.659,3.544,3.544,0,0,1,1.8.4,3.271,3.271,0,0,1,1.1,1.055,6.192,6.192,0,0,1,.793,3.339q0,.775-.65.793l-6.214.133a4.011,4.011,0,0,0,1,2.858,2.841,2.841,0,0,0,2.074.784,5.443,5.443,0,0,0,3.081-.793c.053,0,.118.045.2.134a.783.783,0,0,1,.223.463q0,.428-1.069,1.1a5.31,5.31,0,0,1-2.867.766,4.277,4.277,0,0,1-3.357-1.362A5.177,5.177,0,0,1-680.667-660Zm1.976-1.5q2.564-.124,4.692-.33.1-2.831-1.959-2.831a2.319,2.319,0,0,0-1.878.89A4.427,4.427,0,0,0-678.691-661.5Z" transform="translate(731.034 670.961)" fill="#155263"/>
    <path id="Trazado_15" data-name="Trazado 15" d="M-653.34-655.166a2.584,2.584,0,0,0-.57-.045h-2.84q-.855,0-1.1-.3a.4.4,0,0,1-.1-.267.878.878,0,0,1,.143-.552,1.534,1.534,0,0,0,.485.071.45.45,0,0,0,.409-.223,1.66,1.66,0,0,0,.129-.828v-5.823q0-.837-.311-1.042a.608.608,0,0,0-.33-.08.71.71,0,0,0-.325.063,1.675,1.675,0,0,1-.2.089.151.151,0,0,1-.13,0,.429.429,0,0,1-.106-.093.433.433,0,0,1-.134-.3.618.618,0,0,1,.111-.329,2.139,2.139,0,0,1,.361-.4,3.344,3.344,0,0,1,.57-.414,2.854,2.854,0,0,1,1.443-.419q.828,0,.979,1.1a5.914,5.914,0,0,1,.053.659,8.138,8.138,0,0,1,2.885-1.585,3.913,3.913,0,0,1,1.135-.169,3.91,3.91,0,0,1,1.1.152,2.319,2.319,0,0,1,.9.49,2.813,2.813,0,0,1,.811,2.226v6.036q.026.694.516.855a2.326,2.326,0,0,0,.329.08,2.9,2.9,0,0,1,.352.085.915.915,0,0,1,.245.111.442.442,0,0,1,.151.374.761.761,0,0,1-.142.49,2.586,2.586,0,0,0-.57-.045h-2.84q-.854,0-1.095-.3a.4.4,0,0,1-.1-.267.876.876,0,0,1,.142-.552,1.261,1.261,0,0,0,.4.071.842.842,0,0,0,.307-.049.4.4,0,0,0,.2-.165,1.87,1.87,0,0,0,.125-.837v-5.253q0-1.513-.9-1.692a3.733,3.733,0,0,0-.69-.053,3.8,3.8,0,0,0-.912.125,5.588,5.588,0,0,0-.935.32,4.634,4.634,0,0,0-1.407.944v5.76q.026.694.508.855a2.769,2.769,0,0,0,.334.08,3.239,3.239,0,0,1,.352.085.917.917,0,0,1,.249.111.442.442,0,0,1,.151.374A.765.765,0,0,1-653.34-655.166Z" transform="translate(719.262 670.961)" fill="#155263"/>
    <path id="Trazado_16" data-name="Trazado 16" d="M-623.8-662.814l.009-.321a3.438,3.438,0,0,0-.08-.574,1,1,0,0,0-.512-.663,2.11,2.11,0,0,0-1.1-.258,2.1,2.1,0,0,0-1.175.334,2.568,2.568,0,0,0-.833.895,5.788,5.788,0,0,0-.605,2.858,4.37,4.37,0,0,0,.819,2.751,2.653,2.653,0,0,0,2.208,1.086,4.557,4.557,0,0,0,2.386-.686,3.83,3.83,0,0,0,.428-.294c.059,0,.127.048.2.143a.736.736,0,0,1,.223.414.7.7,0,0,1-.125.357,2.288,2.288,0,0,1-.36.427,4.8,4.8,0,0,1-.566.459,4.658,4.658,0,0,1-.739.419,4.559,4.559,0,0,1-1.914.427,4.962,4.962,0,0,1-1.83-.334,4,4,0,0,1-1.464-.984,5.265,5.265,0,0,1-1.318-3.793,5.941,5.941,0,0,1,1.674-4.407,4.858,4.858,0,0,1,3.517-1.5,3.962,3.962,0,0,1,2.182.561,1.774,1.774,0,0,1,.917,1.549,1.184,1.184,0,0,1-.231.793,1.194,1.194,0,0,1-.931.472A1.891,1.891,0,0,1-623.8-662.814Z" transform="translate(704.431 670.961)" fill="#155263"/>
    <path id="Trazado_17" data-name="Trazado 17" d="M-607.547-660.18q-1.371,0-1.372-.623a.78.78,0,0,1,.143-.5,1.252,1.252,0,0,0,.392.071q.827,0,.81-1.051v-5.965a1.576,1.576,0,0,0-.174-.868.708.708,0,0,0-.619-.245,2.062,2.062,0,0,0-.6.081q-.161.018-.232-.25a.478.478,0,0,1,.072-.423,1.814,1.814,0,0,1,.414-.383,3.549,3.549,0,0,1,.618-.352,2.992,2.992,0,0,1,1.22-.347,1.444,1.444,0,0,1,.726.143.955.955,0,0,1,.36.383,3.007,3.007,0,0,1,.2,1.265v7.114q.027.7.508.855a2.336,2.336,0,0,0,.33.08,2.939,2.939,0,0,1,.352.085.916.916,0,0,1,.245.111.442.442,0,0,1,.151.374.78.78,0,0,1-.133.49,2.664,2.664,0,0,0-.57-.044ZM-607-672.69a1.606,1.606,0,0,1-.556-.093,1.268,1.268,0,0,1-.44-.272,1.326,1.326,0,0,1-.392-1.006,1.328,1.328,0,0,1,.463-1.024,1.507,1.507,0,0,1,1.068-.418,1.344,1.344,0,0,1,1,.374,1.369,1.369,0,0,1,.374,1.015,1.35,1.35,0,0,1-.445,1.024A1.52,1.52,0,0,1-607-672.69Z" transform="translate(693.414 675.931)" fill="#155263"/>
    <path id="Trazado_18" data-name="Trazado 18" d="M-589.141-656.341a4.282,4.282,0,0,1-3.143,1.3,3.153,3.153,0,0,1-2.279-.819,2.838,2.838,0,0,1-.864-2.145,2.651,2.651,0,0,1,1.46-2.458,7.6,7.6,0,0,1,3.713-.748h1.113q.009-.338.009-.659v-.668a3.029,3.029,0,0,0-.347-1.683,1.524,1.524,0,0,0-1.336-.552q-2.163,0-2.226,1.549a2.828,2.828,0,0,0,.01.4.978.978,0,0,1-.6.142,1.434,1.434,0,0,1-.614-.1,1.074,1.074,0,0,1-.334-.268,1.3,1.3,0,0,1-.3-.886,1.487,1.487,0,0,1,.316-.944,2.345,2.345,0,0,1,.859-.664,5.577,5.577,0,0,1,2.5-.525,6.342,6.342,0,0,1,2.169.281,3.011,3.011,0,0,1,1.152.743,3.112,3.112,0,0,1,.757,2.2l-.089,4.274a5.777,5.777,0,0,0,.111,1.478.83.83,0,0,0,.267.419.662.662,0,0,0,.383.107.822.822,0,0,0,.369-.072l.249-.115c.083-.03.156,0,.218.1a.5.5,0,0,1,.093.258.664.664,0,0,1-.093.289,1.277,1.277,0,0,1-.347.379,2.984,2.984,0,0,1-.574.351q-1.772.837-2.413-.392A1.742,1.742,0,0,1-589.141-656.341Zm-.027-1.167q0-1.282.018-2.546a14.9,14.9,0,0,0-2.515.236,4.862,4.862,0,0,0-.957.316,1.455,1.455,0,0,0-.463.356,1.59,1.59,0,0,0-.276,1.02,1.349,1.349,0,0,0,.481,1.086,2.088,2.088,0,0,0,1.38.4A3.586,3.586,0,0,0-589.168-657.508Z" transform="translate(686.154 670.961)" fill="#155263"/>
  </g>
  <g id="Grupo_4" data-name="Grupo 4">
    <path id="Trazado_34" data-name="Trazado 34" d="M-866.294-741.265h0a19.409,19.409,0,0,0-19.41,19.409v18.923a19.409,19.409,0,0,0,19.41,19.409h0a19.409,19.409,0,0,0,19.409-19.409v-18.923A19.409,19.409,0,0,0-866.294-741.265Zm9.587,46.584h-.974v-6.284h.974Zm0-8.916-3.217,4.859v4.057h-.974v-4.351l3.217-4.858v-2.46h.974Zm1.379-15.555v12.415h-3.48v1.97l-.022.029-3.913,5.349.13,4.694-.974.027-.139-5.027,3.944-5.39v-2.626h3.48v-10.953h-10.427l-3.109,3.275v5.92l8.2,4.905-.5.836-8.671-5.189v-6.861l2.74-2.886H-871.3l-1.847,1.858v8.736l9.825,5.836-.583.787-10.216-6.068v-9.693l.032-.032,1.416-1.424h-3.617v12.146l11.271,6.576-.583.788-.086-.051-11.576-6.754v-13.68h.012a10.979,10.979,0,0,1,10.954-10.48,10.979,10.979,0,0,1,10.954,10.48h.012Z" transform="translate(885.704 741.265)" fill="#efefef"/>
  </g>
  <g id="Grupo_5" data-name="Grupo 5" transform="translate(9.43 12.121)">
    <path id="Trazado_35" data-name="Trazado 35" d="M-855.808-715.665a10,10,0,0,0-9.98,9.505h3.964a6.79,6.79,0,0,1,6.752-6.166,6.79,6.79,0,0,1,6.752,6.166h2.492A10,10,0,0,0-855.808-715.665Z" transform="translate(865.788 715.665)" fill="#798777"/>
  </g>
  <g id="Grupo_6" data-name="Grupo 6" transform="translate(19.068 18.897)">
    <path id="Trazado_36" data-name="Trazado 36" d="M-842.183-701.354a3.3,3.3,0,0,0-3.248,2.729h6.5A3.3,3.3,0,0,0-842.183-701.354Z" transform="translate(845.431 701.354)" fill="#798777"/>
  </g>
  <g id="Grupo_7" data-name="Grupo 7" transform="translate(14.37 16.435)">
    <path id="Trazado_37" data-name="Trazado 37" d="M-847.408-705.066a4.252,4.252,0,0,1,2.386.73,5.8,5.8,0,0,0-4.557-2.218,5.816,5.816,0,0,0-5.775,5.191h3.714A4.278,4.278,0,0,1-847.408-705.066Z" transform="translate(855.354 706.554)" fill="#798777"/>
  </g>
  <g id="Grupo_17" data-name="Grupo 17">
    <path id="Trazado_34-2" data-name="Trazado 34" d="M-866.294-741.265h0a19.409,19.409,0,0,0-19.41,19.409v18.923a19.409,19.409,0,0,0,19.41,19.409h0a19.409,19.409,0,0,0,19.409-19.409v-18.923A19.409,19.409,0,0,0-866.294-741.265Zm9.587,46.584h-.974v-6.284h.974Zm0-8.916-3.217,4.859v4.057h-.974v-4.351l3.217-4.858v-2.46h.974Zm1.379-15.555v12.415h-3.48v1.97l-.022.029-3.913,5.349.13,4.694-.974.027-.139-5.027,3.944-5.39v-2.626h3.48v-10.953h-10.427l-3.109,3.275v5.92l8.2,4.905-.5.836-8.671-5.189v-6.861l2.74-2.886H-871.3l-1.847,1.858v8.736l9.825,5.836-.583.787-10.216-6.068v-9.693l.032-.032,1.416-1.424h-3.617v12.146l11.271,6.576-.583.788-.086-.051-11.576-6.754v-13.68h.012a10.979,10.979,0,0,1,10.954-10.48,10.979,10.979,0,0,1,10.954,10.48h.012Z" transform="translate(885.704 741.265)" fill="#798777"/>
  </g>
</svg>
